{
  "accessors": [
    {
      "bufferView": 2,
      "componentType": 5126,
      "count": 5644,
      "max": [
        0.01701703853905201,
        0.32367005944252014,
        0.3231080174446106
      ],
      "min": [
        -0.017143337056040764,
        -0.3236701488494873,
        -0.3231080174446106
      ],
      "type": "VEC3"
    },
    {
      "bufferView": 2,
      "byteOffset": 67728,
      "componentType": 5126,
      "count": 5644,
      "max": [
        0.9998292922973633,
        0.9999256134033203,
        0.9999316334724426
      ],
      "min": [
        -0.9998292922973633,
        -0.9999256134033203,
        -0.9999327063560486
      ],
      "type": "VEC3"
    },
    {
      "bufferView": 1,
      "componentType": 5126,
      "count": 5644,
      "max": [
        0.9037794470787048,
        1.0
      ],
      "min": [
        0.0,
        -1.1920928955078125e-07
      ],
      "type": "VEC2"
    },
    {
      "bufferView": 0,
      "componentType": 5125,
      "count": 26880,
      "type": "SCALAR"
    },
    {
      "bufferView": 2,
      "byteOffset": 135456,
      "componentType": 5126,
      "count": 41880,
      "max": [
        0.4379284083843231,
        1.1414177417755127,
        0.3968670666217804
      ],
      "min": [
        -0.27903318405151367,
        0.3432512879371643,
        -0.39686667919158936
      ],
      "type": "VEC3"
    },
    {
      "bufferView": 2,
      "byteOffset": 638016,
      "componentType": 5126,
      "count": 41880,
      "max": [
        1.0,
        1.0,
        1.0
      ],
      "min": [
        -1.0,
        -1.0,
        -1.0
      ],
      "type": "VEC3"
    },
    {
      "bufferView": 1,
      "byteOffset": 45152,
      "componentType": 5126,
      "count": 41880,
      "max": [
        1.0000001192092896,
        1.0
      ],
      "min": [
        0.0,
        -1.1920928955078125e-07
      ],
      "type": "VEC2"
    },
    {
      "bufferView": 0,
      "byteOffset": 107520,
      "componentType": 5125,
      "count": 226704,
      "type": "SCALAR"
    },
    {
      "bufferView": 2,
      "byteOffset": 1140576,
      "componentType": 5126,
      "count": 5546,
      "max": [
        0.32287362217903137,
        0.41919583082199097,
        0.3248755633831024
      ],
      "min": [
        -0.32687753438949585,
        1.6122946533414506e-08,
        -0.3248755633831024
      ],
      "type": "VEC3"
    },
    {
      "bufferView": 2,
      "byteOffset": 1207128,
      "componentType": 5126,
      "count": 5546,
      "max": [
        1.0,
        1.0,
        1.0
      ],
      "min": [
        -1.0,
        -1.0,
        -1.0
      ],
      "type": "VEC3"
    },
    {
      "bufferView": 1,
      "byteOffset": 380192,
      "componentType": 5126,
      "count": 5546,
      "max": [
        0.9646070599555969,
        1.0
      ],
      "min": [
        0.0,
        -1.1920928955078125e-07
      ],
      "type": "VEC2"
    },
    {
      "bufferView": 0,
      "byteOffset": 1014336,
      "componentType": 5125,
      "count": 26880,
      "type": "SCALAR"
    },
    {
      "bufferView": 2,
      "byteOffset": 1273680,
      "componentType": 5126,
      "count": 24,
      "max": [
        0.3062570095062256,
        0.025698702782392502,
        0.04502905160188675
      ],
      "min": [
        0.26522576808929443,
        0.011339269578456879,
        0.014713634736835957
      ],
      "type": "VEC3"
    },
    {
      "bufferView": 2,
      "byteOffset": 1273968,
      "componentType": 5126,
      "count": 24,
      "max": [
        0.7127990126609802,
        0.6733065843582153,
        0.6254887580871582
      ],
      "min": [
        -0.7127990126609802,
        -0.6733065843582153,
        -0.6254887580871582
      ],
      "type": "VEC3"
    },
    {
      "bufferView": 1,
      "byteOffset": 424560,
      "componentType": 5126,
      "count": 24,
      "max": [
        0.9999999403953552,
        1.0
      ],
      "min": [
        0.0,
        5.960464477539063e-08
      ],
      "type": "VEC2"
    },
    {
      "bufferView": 0,
      "byteOffset": 1121856,
      "componentType": 5125,
      "count": 36,
      "type": "SCALAR"
    },
    {
      "bufferView": 2,
      "byteOffset": 1274256,
      "componentType": 5126,
      "count": 24,
      "max": [
        0.30621424317359924,
        0.024820223450660706,
        -0.014713611453771591
      ],
      "min": [
        0.2652685344219208,
        0.012217734009027481,
        -0.04502903297543526
      ],
      "type": "VEC3"
    },
    {
      "bufferView": 2,
      "byteOffset": 1274544,
      "componentType": 5126,
      "count": 24,
      "max": [
        0.6909462213516235,
        0.6490010619163513,
        0.6254938840866089
      ],
      "min": [
        -0.6909462213516235,
        -0.6490010619163513,
        -0.6254938840866089
      ],
      "type": "VEC3"
    },
    {
      "bufferView": 1,
      "byteOffset": 424752,
      "componentType": 5126,
      "count": 24,
      "max": [
        0.9999999403953552,
        1.0
      ],
      "min": [
        0.0,
        5.960464477539063e-08
      ],
      "type": "VEC2"
    },
    {
      "bufferView": 0,
      "byteOffset": 1122000,
      "componentType": 5125,
      "count": 36,
      "type": "SCALAR"
    },
    {
      "bufferView": 3,
      "componentType": 5126,
      "count": 100,
      "max": [
        4.166666507720947
      ],
      "min": [
        0.0416666679084301
      ],
      "type": "SCALAR"
    },
    {
      "bufferView": 4,
      "componentType": 5126,
      "count": 100,
      "max": [
        0.999714195728302,
        0.0,
        -0.0,
        1.0
      ],
      "min": [
        -0.9994403123855591,
        0.0,
        -0.0,
        0.023906229063868523
      ],
      "type": "VEC4"
    }
  ],
  "animations": [
    {
      "channels": [
        {
          "sampler": 0,
          "target": {
            "node": 3,
            "path": "rotation"
          }
        }
      ],
      "name": "Blade.002Action.001",
      "samplers": [
        {
          "input": 20,
          "interpolation": "LINEAR",
          "output": 21
        }
      ]
    }
  ],
  "asset": {
    "extras": {
      "author": "Ievgenii Okhrymenko (https://sketchfab.com/geninoki)",
      "license": "CC-BY-4.0 (http://creativecommons.org/licenses/by/4.0/)",
      "source": "https://sketchfab.com/3d-models/fan-model-00e44bbac2ab4c5fa9d27530a3c7eb89",
      "title": "Fan model"
    },
    "generator": "Sketchfab-16.52.0",
    "version": "2.0"
  },
  "bufferViews": [
    {
      "buffer": 0,
      "byteLength": 1122144,
      "name": "floatBufferViews",
      "target": 34963
    },
    {
      "buffer": 0,
      "byteLength": 424944,
      "byteOffset": 1122144,
      "byteStride": 8,
      "name": "floatBufferViews",
      "target": 34962
    },
    {
      "buffer": 0,
      "byteLength": 1274832,
      "byteOffset": 1547088,
      "byteStride": 12,
      "name": "floatBufferViews",
      "target": 34962
    },
    {
      "buffer": 0,
      "byteLength": 400,
      "byteOffset": 2821920,
      "name": "floatBufferViews"
    },
    {
      "buffer": 0,
      "byteLength": 1600,
      "byteOffset": 2822320,
      "byteStride": 16,
      "name": "floatBufferViews"
    }
  ],
  "buffers": [
    {
      "byteLength": 2823920,
      "uri": "scene.bin"
    }
  ],
  "materials": [
    {
      "doubleSided": true,
      "name": ".001",
      "pbrMetallicRoughness": {
        "baseColorFactor": [
          0.800172,
          0.627789,
          0.0,
          1.0
        ],
        "metallicFactor": 0.0,
        "roughnessFactor": 0.5
      }
    },
    {
      "doubleSided": true,
      "name": ".004",
      "pbrMetallicRoughness": {
        "baseColorFactor": [
          0.558614,
          0.558614,
          0.558614,
          1.0
        ],
        "roughnessFactor": 0.5
      }
    },
    {
      "doubleSided": true,
      "name": ".002",
      "pbrMetallicRoughness": {
        "baseColorFactor": [
          0.800094,
          0.0,
          0.00905337,
          1.0
        ],
        "metallicFactor": 0.0,
        "roughnessFactor": 0.5
      }
    },
    {
      "doubleSided": true,
      "name": ".003",
      "pbrMetallicRoughness": {
        "baseColorFactor": [
          0.0226466,
          0.0,
          0.800133,
          1.0
        ],
        "metallicFactor": 0.0,
        "roughnessFactor": 0.5
      }
    }
  ],
  "meshes": [
    {
      "name": "Object_0",
      "primitives": [
        {
          "attributes": {
            "NORMAL": 1,
            "POSITION": 0,
            "TEXCOORD_0": 2
          },
          "indices": 3,
          "material": 0,
          "mode": 4
        }
      ]
    },
    {
      "name": "Object_1",
      "primitives": [
        {
          "attributes": {
            "NORMAL": 5,
            "POSITION": 4,
            "TEXCOORD_0": 6
          },
          "indices": 7,
          "material": 1,
          "mode": 4
        }
      ]
    },
    {
      "name": "Object_2",
      "primitives": [
        {
          "attributes": {
            "NORMAL": 9,
            "POSITION": 8,
            "TEXCOORD_0": 10
          },
          "indices": 11,
          "material": 1,
          "mode": 4
        }
      ]
    },
    {
      "name": "Object_3",
      "primitives": [
        {
          "attributes": {
            "NORMAL": 13,
            "POSITION": 12,
            "TEXCOORD_0": 14
          },
          "indices": 15,
          "material": 2,
          "mode": 4
        }
      ]
    },
    {
      "name": "Object_4",
      "primitives": [
        {
          "attributes": {
            "NORMAL": 17,
            "POSITION": 16,
            "TEXCOORD_0": 18
          },
          "indices": 19,
          "material": 3,
          "mode": 4
        }
      ]
    }
  ],
  "nodes": [
    {
      "children": [
        1
      ],
      "matrix": [
        1.0,
        0.0,
        0.0,
        0.0,
        0.0,
        2.220446049250313e-16,
        -1.0,
        0.0,
        0.0,
        1.0,
        2.220446049250313e-16,
        0.0,
        0.0,
        0.0,
        0.0,
        1.0
      ],
      "name": "Sketchfab_model"
    },
    {
      "children": [
        2
      ],
      "name": "root"
    },
    {
      "children": [
        3,
        5,
        7
      ],
      "matrix": [
        1.0,
        0.0,
        0.0,
        0.0,
        0.0,
        2.220446049250313e-16,
        1.0,
        0.0,
        0.0,
        -1.0,
        2.220446049250313e-16,
        0.0,
        0.0,
        0.0,
        0.0,
        1.0
      ],
      "name": "GLTF_SceneRootNode"
    },
    {
      "children": [
        4
      ],
      "name": "bj.003_0",
      "translation": [
        0.26902154088020325,
        0.7449520230293274,
        0.0
      ]
    },
    {
      "mesh": 0,
      "name": "Object_4"
    },
    {
      "children": [
        6
      ],
      "name": "bj.004_1"
    },
    {
      "mesh": 1,
      "name": "Object_6"
    },
    {
      "children": [
        8,
        9,
        10
      ],
      "name": "bj.001_2"
    },
    {
      "mesh": 2,
      "name": "Object_8"
    },
    {
      "mesh": 3,
      "name": "Object_9"
    },
    {
      "mesh": 4,
      "name": "Object_10"
    }
  ],
  "scene": 0,
  "scenes": [
    {
      "name": "Sketchfab_Scene",
      "nodes": [
        0
      ]
    }
  ]
}
